<!DOCTYPE svg PUBLIC "-//W3C//DTD SVG 1.1//EN" "http://www.w3.org/Graphics/SVG/1.1/DTD/svg11.dtd">
<!-- Uploaded to: SVG Repo, www.svgrepo.com, Transformed by: SVG Repo Mixer Tools -->
<svg width="800px" height="800px" viewBox="0 0 1024 1024" class="icon" version="1.1" xmlns="http://www.w3.org/2000/svg" fill="#000000">
<g id="SVGRepo_bgCarrier" stroke-width="0"/>
<g id="SVGRepo_tracerCarrier" stroke-linecap="round" stroke-linejoin="round"/>
<g id="SVGRepo_iconCarrier">
<path d="M435.2 65.6c46.4-4.8 73.6 41.6 64 96-4.8 25.6-4.8 43.2-3.2 62.4 0 3.2 1.6 8 1.6 12.8 0 3.2 1.6 14.4 1.6 12.8 1.6 11.2 1.6 20.8 3.2 32v6.4c1.6 20.8 1.6 30.4 3.2 46.4 1.6 11.2 4.8 27.2 11.2 44.8 1.6 4.8 3.2 9.6 4.8 16 14.4 44.8 14.4 44.8 17.6 56 3.2 12.8 6.4 19.2 40 62.4 9.6 11.2 16 20.8 22.4 30.4 14.4 22.4 19.2 36.8 27.2 73.6 3.2 12.8 4.8 19.2 6.4 24 12.8 28.8 20.8 68.8 20.8 96 0 9.6 1.6 17.6 3.2 25.6 0 1.6 1.6 6.4 1.6 6.4 0 3.2 1.6 4.8 1.6 8v8c0 14.4-1.6 33.6-4.8 48v8c0 20.8-3.2 33.6-12.8 54.4-16 33.6-25.6 43.2-46.4 52.8-25.6 11.2-48-9.6-54.4-40-1.6-11.2-3.2-27.2-3.2-52.8v-22.4-22.4c0-6.4 0-11.2 1.6-24 1.6-24 1.6-36.8-1.6-54.4-1.6-9.6-3.2-17.6-6.4-28.8 0-1.6-1.6-6.4-1.6-8-1.6-3.2-1.6-6.4-1.6-8-3.2-16-4.8-27.2-3.2-43.2 3.2-41.6-1.6-73.6-20.8-92.8-11.2-12.8-22.4-22.4-35.2-35.2-1.6-1.6-24-22.4-30.4-28.8-9.6-9.6-19.2-24-30.4-46.4-1.6-1.6-8-14.4-9.6-19.2-3.2-6.4-6.4-11.2-8-16-16-25.6-25.6-59.2-30.4-107.2-1.6-11.2-1.6-17.6-4.8-41.6-1.6-9.6-1.6-14.4-3.2-20.8-3.2-40-3.2-68.8 6.4-92.8 20.8-56 33.6-75.2 73.6-78.4z m1.6 32c-22.4 1.6-28.8 11.2-46.4 56-6.4 17.6-6.4 44.8-1.6 84.8 0 6.4 1.6 11.2 3.2 20.8 3.2 24 4.8 32 4.8 43.2 3.2 44.8 11.2 72 25.6 92.8 3.2 4.8 6.4 9.6 9.6 17.6 1.6 3.2 9.6 17.6 9.6 19.2 9.6 19.2 17.6 30.4 24 38.4 6.4 6.4 28.8 27.2 28.8 28.8 12.8 12.8 24 24 35.2 36.8 25.6 27.2 32 67.2 28.8 116.8-1.6 11.2 0 20.8 3.2 32 0 1.6 1.6 4.8 1.6 8 0 1.6 1.6 6.4 1.6 8 3.2 12.8 4.8 22.4 6.4 32 3.2 20.8 3.2 35.2 1.6 60.8 0 12.8-1.6 16-1.6 22.4v46.4c0 22.4 0 36.8 1.6 44.8 3.2 12.8 8 17.6 11.2 16 12.8-4.8 17.6-11.2 30.4-36.8 8-16 9.6-25.6 9.6-41.6 0-8 0-11.2 1.6-14.4 1.6-11.2 4.8-28.8 4.8-40v-3.2c0-1.6 0-3.2-1.6-4.8 0 0-1.6-4.8-1.6-6.4-1.6-14.4-3.2-24-3.2-36.8 0-22.4-8-57.6-19.2-83.2-3.2-8-4.8-16-8-30.4-6.4-32-9.6-44.8-22.4-62.4-4.8-8-11.2-16-20.8-27.2-38.4-49.6-41.6-54.4-46.4-75.2-1.6-9.6-1.6-11.2-16-52.8-1.6-6.4-3.2-11.2-4.8-16-6.4-20.8-11.2-36.8-12.8-51.2-1.6-17.6-3.2-27.2-4.8-49.6v-6.4c0-11.2-1.6-20.8-3.2-30.4 0 0-1.6-11.2-1.6-12.8 0-4.8-1.6-9.6-1.6-12.8-1.6-22.4-1.6-43.2 3.2-72 8-36.8-6.4-60.8-28.8-59.2z" fill="#050D42"/>
<path d="M702.4 102.4c-12.8-16-25.6-25.6-43.2-20.8-25.6 6.4-43.2 38.4-43.2 76.8 0 6.4 0 12.8-1.6 27.2v4.8c-1.6 16-1.6 24-1.6 32s0 17.6-1.6 32c0 4.8-1.6 19.2-1.6 22.4 0 8-1.6 14.4-1.6 19.2l-3.2 4.8c-3.2 4.8-4.8 9.6-6.4 14.4-1.6 4.8-1.6 9.6-3.2 19.2 0 8-1.6 11.2-1.6 14.4-1.6 3.2-3.2 6.4-6.4 14.4-3.2 6.4-4.8 8-4.8 11.2-3.2 6.4-4.8 9.6-6.4 17.6-4.8 12.8-6.4 17.6-9.6 25.6-6.4 12.8-14.4 19.2-32 27.2-20.8 9.6-68.8 46.4-102.4 76.8-28.8 27.2-48 54.4-73.6 100.8-16 27.2-32 88-36.8 120 0 3.2-1.6 8-4.8 19.2-8 35.2-11.2 56-8 83.2 0 4.8 1.6 11.2 3.2 16 14.4 56 30.4 78.4 65.6 80 27.2 1.6 38.4-11.2 48-38.4 1.6-4.8 1.6-6.4 3.2-8 0-1.6 1.6-1.6 1.6-3.2 4.8-11.2 8-27.2 12.8-59.2 0-1.6 0-3.2 1.6-8 3.2-30.4 4.8-36.8 6.4-43.2 6.4-25.6 12.8-46.4 25.6-76.8 6.4-14.4 8-25.6 11.2-46.4 0-4.8 1.6-6.4 1.6-8 1.6-11.2 3.2-19.2 8-28.8 0-1.6 0-1.6 1.6-1.6 1.6-3.2 8-19.2 11.2-24 4.8-9.6 8-17.6 12.8-24 9.6-17.6 20.8-32 32-41.6 16-12.8 22.4-16 48-27.2 9.6-4.8 16-6.4 22.4-11.2 12.8-8 25.6-20.8 40-41.6 4.8-6.4 9.6-12.8 14.4-20.8 3.2-4.8 11.2-16 11.2-16 1.6-3.2 4.8-6.4 6.4-11.2 4.8-9.6 6.4-16 12.8-38.4 3.2-16 6.4-22.4 9.6-35.2 12.8-44.8 14.4-56 14.4-84.8v-30.4c0-16 0-28.8-3.2-43.2-4.8-24-14.4-48-28.8-67.2z m-25.6 19.2c11.2 14.4 17.6 33.6 20.8 56 1.6 12.8 3.2 24 3.2 38.4v30.4c0 25.6-1.6 33.6-12.8 76.8-3.2 12.8-4.8 20.8-9.6 35.2-4.8 19.2-6.4 25.6-9.6 32-1.6 1.6-3.2 4.8-4.8 8 0 0-8 12.8-11.2 16-4.8 8-9.6 12.8-14.4 19.2-12.8 16-22.4 27.2-30.4 32-4.8 3.2-9.6 4.8-19.2 9.6-27.2 11.2-36.8 17.6-56 32-14.4 12.8-27.2 28.8-40 51.2-4.8 8-8 16-12.8 27.2-1.6 4.8-9.6 19.2-11.2 24 0 1.6 0 1.6-1.6 1.6-4.8 11.2-8 22.4-11.2 36.8 0 3.2 0 3.2-1.6 9.6-3.2 17.6-4.8 27.2-9.6 38.4-12.8 30.4-20.8 54.4-27.2 81.6-1.6 8-3.2 16-6.4 48 0 3.2 0 4.8-1.6 8-3.2 27.2-6.4 43.2-9.6 49.6 0 1.6-1.6 3.2-1.6 4.8-1.6 3.2-1.6 4.8-3.2 9.6-6.4 16-8 17.6-17.6 17.6-17.6 0-25.6-11.2-35.2-56-1.6-4.8-1.6-8-1.6-12.8-3.2-22.4 0-38.4 8-70.4 3.2-12.8 4.8-17.6 4.8-22.4 3.2-27.2 19.2-84.8 32-108.8 24-43.2 43.2-70.4 67.2-92.8 30.4-28.8 76.8-64 92.8-72 24-11.2 38.4-22.4 48-43.2 4.8-9.6 6.4-16 11.2-28.8 3.2-8 4.8-12.8 6.4-17.6 1.6-3.2 1.6-4.8 4.8-9.6 4.8-9.6 6.4-14.4 8-19.2 1.6-6.4 3.2-11.2 3.2-20.8 0-8 1.6-11.2 1.6-12.8 0-3.2 1.6-4.8 3.2-8 8-16 8-17.6 8-24 0-4.8 0-11.2 1.6-19.2 0-1.6 1.6-17.6 1.6-22.4 1.6-14.4 1.6-25.6 1.6-33.6 0-6.4 0-14.4 1.6-28.8v-4.8c1.6-14.4 1.6-22.4 1.6-30.4 0-24 9.6-43.2 19.2-44.8 0 0 4.8 3.2 9.6 9.6z" fill="#050D42"/>
<path d="M528 496m-64 0a64 64 0 1 0 128 0 64 64 0 1 0-128 0Z" fill="#5AC3F0"/>
</g>
</svg>